<svg xmlns="http://www.w3.org/2000/svg" width="840" height="460" data-tpl="layered" data-pal="3-3" viewBox="0 0 840 460" font-family="Inter, Segoe UI, Arial, sans-serif"><defs><marker id="ar" markerWidth="9" markerHeight="9" refX="7" refY="3" orient="auto"><path d="M0,0 L7,3 L0,6 z" fill="#94a3b8"/></marker><marker id="arw" markerWidth="9" markerHeight="9" refX="7" refY="3" orient="auto"><path d="M0,0 L7,3 L0,6 z" fill="#ffffff"/></marker></defs><rect width="840" height="460" rx="14" fill="#ffffff"/><rect x="0" y="0" width="840" height="46" rx="14" fill="#ea580c"/><rect x="0" y="30" width="840" height="16" fill="#ea580c"/><text x="420" y="24" text-anchor="middle" font-size="15" font-weight="700" fill="#ffffff" dominant-baseline="middle">Operating Model - Capstone Project</text><rect x="28" y="64" width="784" height="104" rx="14" fill="#f8fafc" stroke="#e2e8f0" stroke-width="1"/><text x="42" y="80" text-anchor="start" font-size="11" font-weight="700" fill="#64748b" dominant-baseline="middle">Experience</text><rect x="42" y="96" width="371" height="52" rx="11" fill="#ea580c"/><text x="228" y="122" text-anchor="middle" font-size="11" font-weight="600" fill="#ffffff" dominant-baseline="middle">From N-grams to Neural Language Models</text><rect x="427" y="96" width="371" height="52" rx="11" fill="#f97316"/><text x="612" y="122" text-anchor="middle" font-size="11" font-weight="600" fill="#ffffff" dominant-baseline="middle">Tokenisation and Vocabulary</text><rect x="28" y="186" width="784" height="104" rx="14" fill="#f8fafc" stroke="#e2e8f0" stroke-width="1"/><text x="42" y="202" text-anchor="start" font-size="11" font-weight="700" fill="#64748b" dominant-baseline="middle">Platform</text><rect x="42" y="218" width="178" height="52" rx="11" fill="#f97316"/><text x="131" y="244" text-anchor="middle" font-size="11" font-weight="600" fill="#ffffff" dominant-baseline="middle">Inference Optimisation</text><rect x="234" y="218" width="178" height="52" rx="11" fill="#fb923c"/><text x="324" y="244" text-anchor="middle" font-size="11" font-weight="600" fill="#ffffff" dominant-baseline="middle">Serving LLMs at Scale</text><rect x="427" y="218" width="178" height="52" rx="11" fill="#b45309"/><text x="516" y="244" text-anchor="middle" font-size="11" font-weight="600" fill="#ffffff" dominant-baseline="middle">Evaluation and Benchmarking</text><rect x="620" y="218" width="178" height="52" rx="11" fill="#d97706"/><text x="709" y="244" text-anchor="middle" font-size="11" font-weight="600" fill="#ffffff" dominant-baseline="middle">Hallucination and Factuality</text><rect x="28" y="308" width="784" height="104" rx="14" fill="#f8fafc" stroke="#e2e8f0" stroke-width="1"/><text x="42" y="324" text-anchor="start" font-size="11" font-weight="700" fill="#64748b" dominant-baseline="middle">Data &amp; Operations</text><rect x="42" y="340" width="178" height="52" rx="11" fill="#fb923c"/><text x="131" y="366" text-anchor="middle" font-size="11" font-weight="600" fill="#ffffff" dominant-baseline="middle">Store</text><rect x="234" y="340" width="178" height="52" rx="11" fill="#b45309"/><text x="324" y="366" text-anchor="middle" font-size="11" font-weight="600" fill="#ffffff" dominant-baseline="middle">Index</text><rect x="427" y="340" width="178" height="52" rx="11" fill="#d97706"/><text x="516" y="366" text-anchor="middle" font-size="11" font-weight="600" fill="#ffffff" dominant-baseline="middle">Observability</text><rect x="620" y="340" width="178" height="52" rx="11" fill="#f59e0b"/><text x="709" y="366" text-anchor="middle" font-size="11" font-weight="600" fill="#ffffff" dominant-baseline="middle">Security</text></svg>