<svg xmlns="http://www.w3.org/2000/svg" width="840" height="460" data-tpl="pillars" data-pal="5-2" viewBox="0 0 840 460" font-family="Inter, Segoe UI, Arial, sans-serif"><defs><marker id="ar" markerWidth="9" markerHeight="9" refX="7" refY="3" orient="auto"><path d="M0,0 L7,3 L0,6 z" fill="#94a3b8"/></marker><marker id="arw" markerWidth="9" markerHeight="9" refX="7" refY="3" orient="auto"><path d="M0,0 L7,3 L0,6 z" fill="#ffffff"/></marker></defs><rect width="840" height="460" rx="14" fill="#ffffff"/><rect x="0" y="0" width="840" height="46" rx="14" fill="#2563eb"/><rect x="0" y="30" width="840" height="16" fill="#2563eb"/><text x="420" y="24" text-anchor="middle" font-size="15" font-weight="700" fill="#ffffff" dominant-baseline="middle">Architecture - Context Windows and Long-Context Techniques</text><rect x="68" y="140" width="120" height="250" rx="10" fill="#2563eb"/><rect x="60" y="126" width="136" height="18" rx="6" fill="#2563eb"/><text x="128" y="265" text-anchor="middle" font-size="11" font-weight="600" fill="#fff" dominant-baseline="middle">Scaling Laws …</text><rect x="214" y="140" width="120" height="250" rx="10" fill="#3b82f6"/><rect x="206" y="126" width="136" height="18" rx="6" fill="#3b82f6"/><text x="274" y="265" text-anchor="middle" font-size="11" font-weight="600" fill="#fff" dominant-baseline="middle">Instruction T…</text><rect x="360" y="140" width="120" height="250" rx="10" fill="#60a5fa"/><rect x="352" y="126" width="136" height="18" rx="6" fill="#60a5fa"/><text x="420" y="265" text-anchor="middle" font-size="11" font-weight="600" fill="#fff" dominant-baseline="middle">Context Windo…</text><rect x="506" y="140" width="120" height="250" rx="10" fill="#1e40af"/><rect x="498" y="126" width="136" height="18" rx="6" fill="#1e40af"/><text x="566" y="265" text-anchor="middle" font-size="11" font-weight="600" fill="#fff" dominant-baseline="middle">Inference Opt…</text><rect x="652" y="140" width="120" height="250" rx="10" fill="#1e3a8a"/><rect x="644" y="126" width="136" height="18" rx="6" fill="#1e3a8a"/><text x="712" y="265" text-anchor="middle" font-size="11" font-weight="600" fill="#fff" dominant-baseline="middle">Serving LLMs …</text><rect x="48.0" y="390" width="744" height="12" rx="4" fill="#0f172a"/></svg>