<svg xmlns="http://www.w3.org/2000/svg" width="840" height="460" data-tpl="flow_h" data-pal="8-1" viewBox="0 0 840 460" font-family="Inter, Segoe UI, Arial, sans-serif"><defs><marker id="ar" markerWidth="9" markerHeight="9" refX="7" refY="3" orient="auto"><path d="M0,0 L7,3 L0,6 z" fill="#94a3b8"/></marker><marker id="arw" markerWidth="9" markerHeight="9" refX="7" refY="3" orient="auto"><path d="M0,0 L7,3 L0,6 z" fill="#ffffff"/></marker><filter id="sh" x="-20%" y="-20%" width="140%" height="140%"><feDropShadow dx="0" dy="2" stdDeviation="3" flood-color="#0f172a" flood-opacity="0.16"/></filter></defs><defs><linearGradient id="bnd7026b" x1="0" y1="0" x2="1" y2="0"><stop offset="0" stop-color="#14b8a6"/><stop offset="1" stop-color="#2dd4bf"/></linearGradient></defs><rect width="840" height="460" rx="14" fill="#ffffff"/><rect x="0" y="0" width="840" height="48" rx="14" fill="url(#bnd7026b)"/><rect x="0" y="32" width="840" height="16" fill="url(#bnd7026b)"/><text x="420" y="25" text-anchor="middle" font-size="14.5" font-weight="700" fill="#ffffff" dominant-baseline="middle">CI/CD Pipeline - Instruction Tuning and Alignment</text><rect x="39" y="196" width="130" height="68" rx="11" fill="#14b8a6" filter="url(#sh)"/><text x="104" y="224" text-anchor="middle" font-size="10.5" font-weight="600" fill="#ffffff" dominant-baseline="middle">Instruction Tuning</text><text x="104" y="236" text-anchor="middle" font-size="10.5" font-weight="600" fill="#ffffff" dominant-baseline="middle">and Alignment</text><rect x="197" y="196" width="130" height="68" rx="11" fill="#2dd4bf" filter="url(#sh)"/><text x="262" y="218" text-anchor="middle" font-size="10.5" font-weight="600" fill="#ffffff" dominant-baseline="middle">From N-grams to</text><text x="262" y="230" text-anchor="middle" font-size="10.5" font-weight="600" fill="#ffffff" dominant-baseline="middle">Neural Language</text><text x="262" y="242" text-anchor="middle" font-size="10.5" font-weight="600" fill="#ffffff" dominant-baseline="middle">Models</text><line x1="169" y1="230" x2="197" y2="230" stroke="#94a3b8" stroke-width="2" marker-end="url(#ar)"/><rect x="355" y="196" width="130" height="68" rx="11" fill="#65a30d" filter="url(#sh)"/><text x="420" y="224" text-anchor="middle" font-size="10.5" font-weight="600" fill="#ffffff" dominant-baseline="middle">Inference</text><text x="420" y="236" text-anchor="middle" font-size="10.5" font-weight="600" fill="#ffffff" dominant-baseline="middle">Optimisation</text><line x1="327" y1="230" x2="355" y2="230" stroke="#94a3b8" stroke-width="2" marker-end="url(#ar)"/><rect x="513" y="196" width="130" height="68" rx="11" fill="#84cc16" filter="url(#sh)"/><text x="578" y="218" text-anchor="middle" font-size="10.5" font-weight="600" fill="#ffffff" dominant-baseline="middle">Context Windows and</text><text x="578" y="230" text-anchor="middle" font-size="10.5" font-weight="600" fill="#ffffff" dominant-baseline="middle">Long-Context</text><text x="578" y="242" text-anchor="middle" font-size="10.5" font-weight="600" fill="#ffffff" dominant-baseline="middle">Techniques</text><line x1="485" y1="230" x2="513" y2="230" stroke="#94a3b8" stroke-width="2" marker-end="url(#ar)"/><rect x="671" y="196" width="130" height="68" rx="11" fill="#0d9488" filter="url(#sh)"/><text x="736" y="224" text-anchor="middle" font-size="10.5" font-weight="600" fill="#ffffff" dominant-baseline="middle">Tokenisation and</text><text x="736" y="236" text-anchor="middle" font-size="10.5" font-weight="600" fill="#ffffff" dominant-baseline="middle">Vocabulary</text><line x1="643" y1="230" x2="671" y2="230" stroke="#94a3b8" stroke-width="2" marker-end="url(#ar)"/><text x="420" y="300" text-anchor="middle" font-size="11" font-weight="500" fill="#64748b" dominant-baseline="middle">end-to-end flow</text><text x="28" y="446" text-anchor="start" font-size="9.5" font-weight="500" fill="#64748b" dominant-baseline="middle">Instruction Tuning and Alignment  •  CI/CD Pipeline</text></svg>