<svg xmlns="http://www.w3.org/2000/svg" width="840" height="460" data-tpl="radial" data-pal="2-4" viewBox="0 0 840 460" font-family="Inter, Segoe UI, Arial, sans-serif"><defs><marker id="ar" markerWidth="9" markerHeight="9" refX="7" refY="3" orient="auto"><path d="M0,0 L7,3 L0,6 z" fill="#94a3b8"/></marker><marker id="arw" markerWidth="9" markerHeight="9" refX="7" refY="3" orient="auto"><path d="M0,0 L7,3 L0,6 z" fill="#ffffff"/></marker><filter id="sh" x="-20%" y="-20%" width="140%" height="140%"><feDropShadow dx="0" dy="2" stdDeviation="3" flood-color="#0f172a" flood-opacity="0.16"/></filter></defs><defs><linearGradient id="bn8eaaead" x1="0" y1="0" x2="1" y2="0"><stop offset="0" stop-color="#0d9488"/><stop offset="1" stop-color="#14b8a6"/></linearGradient></defs><rect width="840" height="460" rx="14" fill="#ffffff"/><rect x="0" y="0" width="840" height="48" rx="14" fill="url(#bn8eaaead)"/><rect x="0" y="32" width="840" height="16" fill="url(#bn8eaaead)"/><text x="420" y="25" text-anchor="middle" font-size="14.5" font-weight="700" fill="#ffffff" dominant-baseline="middle">Knowledge Graph - Zero-, One- and Few-Shot Prompting</text><circle cx="420.0" cy="238.0" r="52" fill="#0f172a"/><text x="420" y="231" text-anchor="middle" font-size="12" font-weight="600" fill="#fff" dominant-baseline="middle">Prompt</text><text x="420" y="245" text-anchor="middle" font-size="12" font-weight="600" fill="#fff" dominant-baseline="middle">Engineering</text><line x1="420" y1="186" x2="420" y2="102" stroke="#94a3b8" stroke-width="2" marker-end="url(#ar)"/><rect x="342" y="65" width="156" height="46" rx="11" fill="#0d9488" filter="url(#sh)"/><text x="420" y="88" text-anchor="middle" font-size="11" font-weight="600" fill="#ffffff" dominant-baseline="middle">Cost-Aware Prompt Design</text><line x1="465" y1="212" x2="631" y2="170" stroke="#94a3b8" stroke-width="2" marker-end="url(#ar)"/><rect x="576" y="140" width="156" height="46" rx="11" fill="#14b8a6" filter="url(#sh)"/><text x="654" y="158" text-anchor="middle" font-size="9.5" font-weight="600" fill="#ffffff" dominant-baseline="middle">Patterns, Anti-Patterns and</text><text x="654" y="168" text-anchor="middle" font-size="9.5" font-weight="600" fill="#ffffff" dominant-baseline="middle">a Style Guide</text><line x1="465" y1="264" x2="631" y2="306" stroke="#94a3b8" stroke-width="2" marker-end="url(#ar)"/><rect x="576" y="290" width="156" height="46" rx="11" fill="#047857" filter="url(#sh)"/><text x="654" y="313" text-anchor="middle" font-size="11" font-weight="600" fill="#ffffff" dominant-baseline="middle">Anatomy of a Prompt</text><line x1="420" y1="290" x2="420" y2="374" stroke="#94a3b8" stroke-width="2" marker-end="url(#ar)"/><rect x="342" y="365" width="156" height="46" rx="11" fill="#059669" filter="url(#sh)"/><text x="420" y="383" text-anchor="middle" font-size="9.5" font-weight="600" fill="#ffffff" dominant-baseline="middle">Zero-, One- and Few-Shot</text><text x="420" y="393" text-anchor="middle" font-size="9.5" font-weight="600" fill="#ffffff" dominant-baseline="middle">Prompting</text><line x1="375" y1="264" x2="209" y2="306" stroke="#94a3b8" stroke-width="2" marker-end="url(#ar)"/><rect x="108" y="290" width="156" height="46" rx="11" fill="#10b981" filter="url(#sh)"/><text x="186" y="308" text-anchor="middle" font-size="9.5" font-weight="600" fill="#ffffff" dominant-baseline="middle">Chain-of-Thought and</text><text x="186" y="318" text-anchor="middle" font-size="9.5" font-weight="600" fill="#ffffff" dominant-baseline="middle">Reasoning Prompts</text><line x1="375" y1="212" x2="209" y2="170" stroke="#94a3b8" stroke-width="2" marker-end="url(#ar)"/><rect x="108" y="140" width="156" height="46" rx="11" fill="#34d399" filter="url(#sh)"/><text x="186" y="158" text-anchor="middle" font-size="9.5" font-weight="600" fill="#ffffff" dominant-baseline="middle">Structured Output and Schema</text><text x="186" y="168" text-anchor="middle" font-size="9.5" font-weight="600" fill="#ffffff" dominant-baseline="middle">Enforcement</text><text x="28" y="446" text-anchor="start" font-size="9.5" font-weight="500" fill="#64748b" dominant-baseline="middle">Prompt Engineering  •  Knowledge Graph</text></svg>