<svg xmlns="http://www.w3.org/2000/svg" width="840" height="460" data-tpl="pillars" data-pal="11-1" viewBox="0 0 840 460" font-family="Inter, Segoe UI, Arial, sans-serif"><defs><marker id="ar" markerWidth="9" markerHeight="9" refX="7" refY="3" orient="auto"><path d="M0,0 L7,3 L0,6 z" fill="#94a3b8"/></marker><marker id="arw" markerWidth="9" markerHeight="9" refX="7" refY="3" orient="auto"><path d="M0,0 L7,3 L0,6 z" fill="#ffffff"/></marker></defs><rect width="840" height="460" rx="14" fill="#ffffff"/><rect x="0" y="0" width="840" height="46" rx="14" fill="#1e40af"/><rect x="0" y="30" width="840" height="16" fill="#1e40af"/><text x="420" y="24" text-anchor="middle" font-size="15" font-weight="700" fill="#ffffff" dominant-baseline="middle">Capability Map - Capstone Project</text><rect x="68" y="140" width="120" height="250" rx="10" fill="#1e40af"/><rect x="60" y="126" width="136" height="18" rx="6" fill="#1e40af"/><text x="128" y="265" text-anchor="middle" font-size="11" font-weight="600" fill="#fff" dominant-baseline="middle">Anatomy of a …</text><rect x="214" y="140" width="120" height="250" rx="10" fill="#0e7490"/><rect x="206" y="126" width="136" height="18" rx="6" fill="#0e7490"/><text x="274" y="265" text-anchor="middle" font-size="11" font-weight="600" fill="#fff" dominant-baseline="middle">Zero-, One- a…</text><rect x="360" y="140" width="120" height="250" rx="10" fill="#b45309"/><rect x="352" y="126" width="136" height="18" rx="6" fill="#b45309"/><text x="420" y="265" text-anchor="middle" font-size="11" font-weight="600" fill="#fff" dominant-baseline="middle">Chain-of-Thou…</text><rect x="506" y="140" width="120" height="250" rx="10" fill="#9f1239"/><rect x="498" y="126" width="136" height="18" rx="6" fill="#9f1239"/><text x="566" y="265" text-anchor="middle" font-size="11" font-weight="600" fill="#fff" dominant-baseline="middle">Structured Ou…</text><rect x="652" y="140" width="120" height="250" rx="10" fill="#4338ca"/><rect x="644" y="126" width="136" height="18" rx="6" fill="#4338ca"/><text x="712" y="265" text-anchor="middle" font-size="11" font-weight="600" fill="#fff" dominant-baseline="middle">Retrieval-Aug…</text><rect x="48.0" y="390" width="744" height="12" rx="4" fill="#0f172a"/></svg>