<svg xmlns="http://www.w3.org/2000/svg" width="840" height="460" data-tpl="flow_v" data-pal="11-5" viewBox="0 0 840 460" font-family="Inter, Segoe UI, Arial, sans-serif"><defs><marker id="ar" markerWidth="9" markerHeight="9" refX="7" refY="3" orient="auto"><path d="M0,0 L7,3 L0,6 z" fill="#94a3b8"/></marker><marker id="arw" markerWidth="9" markerHeight="9" refX="7" refY="3" orient="auto"><path d="M0,0 L7,3 L0,6 z" fill="#ffffff"/></marker><filter id="sh" x="-20%" y="-20%" width="140%" height="140%"><feDropShadow dx="0" dy="2" stdDeviation="3" flood-color="#0f172a" flood-opacity="0.16"/></filter></defs><defs><linearGradient id="bnf0f357a" x1="0" y1="0" x2="1" y2="0"><stop offset="0" stop-color="#4338ca"/><stop offset="1" stop-color="#0f172a"/></linearGradient></defs><rect width="840" height="460" rx="14" fill="#ffffff"/><rect x="0" y="0" width="840" height="48" rx="14" fill="url(#bnf0f357a)"/><rect x="0" y="32" width="840" height="16" fill="url(#bnf0f357a)"/><text x="420" y="25" text-anchor="middle" font-size="14.5" font-weight="700" fill="#ffffff" dominant-baseline="middle">Data Flow - Tool Use and Function Calling</text><rect x="270" y="70" width="300" height="52" rx="11" fill="#4338ca" filter="url(#sh)"/><text x="420" y="96" text-anchor="middle" font-size="12" font-weight="600" fill="#ffffff" dominant-baseline="middle">Structured Output and Schema Enforcement</text><rect x="270" y="144" width="300" height="52" rx="11" fill="#0f172a" filter="url(#sh)"/><text x="420" y="170" text-anchor="middle" font-size="12" font-weight="600" fill="#ffffff" dominant-baseline="middle">Retrieval-Augmented Prompting</text><line x1="420" y1="122" x2="420" y2="144" stroke="#94a3b8" stroke-width="2" marker-end="url(#ar)"/><rect x="270" y="218" width="300" height="52" rx="11" fill="#1e40af" filter="url(#sh)"/><text x="420" y="244" text-anchor="middle" font-size="12" font-weight="600" fill="#ffffff" dominant-baseline="middle">Tool Use and Function Calling</text><line x1="420" y1="196" x2="420" y2="218" stroke="#94a3b8" stroke-width="2" marker-end="url(#ar)"/><rect x="270" y="292" width="300" height="52" rx="11" fill="#0e7490" filter="url(#sh)"/><text x="420" y="318" text-anchor="middle" font-size="12" font-weight="600" fill="#ffffff" dominant-baseline="middle">Prompt Templates and Composition</text><line x1="420" y1="270" x2="420" y2="292" stroke="#94a3b8" stroke-width="2" marker-end="url(#ar)"/><rect x="270" y="366" width="300" height="52" rx="11" fill="#b45309" filter="url(#sh)"/><text x="420" y="392" text-anchor="middle" font-size="12" font-weight="600" fill="#ffffff" dominant-baseline="middle">Decoding Parameters and Sampling</text><line x1="420" y1="344" x2="420" y2="366" stroke="#94a3b8" stroke-width="2" marker-end="url(#ar)"/><text x="28" y="446" text-anchor="start" font-size="9.5" font-weight="500" fill="#64748b" dominant-baseline="middle">Prompt Engineering  •  Data Flow</text></svg>