<svg xmlns="http://www.w3.org/2000/svg" width="840" height="460" data-tpl="cycle" data-pal="11-1" viewBox="0 0 840 460" font-family="Inter, Segoe UI, Arial, sans-serif"><defs><marker id="ar" markerWidth="9" markerHeight="9" refX="7" refY="3" orient="auto"><path d="M0,0 L7,3 L0,6 z" fill="#94a3b8"/></marker><marker id="arw" markerWidth="9" markerHeight="9" refX="7" refY="3" orient="auto"><path d="M0,0 L7,3 L0,6 z" fill="#ffffff"/></marker><filter id="sh" x="-20%" y="-20%" width="140%" height="140%"><feDropShadow dx="0" dy="2" stdDeviation="3" flood-color="#0f172a" flood-opacity="0.16"/></filter></defs><defs><linearGradient id="bn67dd78e" x1="0" y1="0" x2="1" y2="0"><stop offset="0" stop-color="#1e40af"/><stop offset="1" stop-color="#0e7490"/></linearGradient></defs><rect width="840" height="460" rx="14" fill="#ffffff"/><rect x="0" y="0" width="840" height="48" rx="14" fill="url(#bn67dd78e)"/><rect x="0" y="32" width="840" height="16" fill="url(#bn67dd78e)"/><text x="420" y="25" text-anchor="middle" font-size="15" font-weight="700" fill="#ffffff" dominant-baseline="middle">CI/CD Pipeline - Synthetic Data Generation</text><rect x="348" y="86" width="144" height="44" rx="11" fill="#1e40af" filter="url(#sh)"/><text x="420" y="108" text-anchor="middle" font-size="11" font-weight="600" fill="#ffffff" dominant-baseline="middle">Controllability and St…</text><rect x="472" y="176" width="144" height="44" rx="11" fill="#0e7490" filter="url(#sh)"/><text x="544" y="198" text-anchor="middle" font-size="11" font-weight="600" fill="#ffffff" dominant-baseline="middle">Evaluation of Generati…</text><rect x="424" y="321" width="144" height="44" rx="11" fill="#b45309" filter="url(#sh)"/><text x="496" y="343" text-anchor="middle" font-size="11" font-weight="600" fill="#ffffff" dominant-baseline="middle">Safety, Guardrails and…</text><rect x="272" y="321" width="144" height="44" rx="11" fill="#9f1239" filter="url(#sh)"/><text x="344" y="343" text-anchor="middle" font-size="11" font-weight="600" fill="#ffffff" dominant-baseline="middle">Cost, Latency and Thro…</text><rect x="224" y="176" width="144" height="44" rx="11" fill="#4338ca" filter="url(#sh)"/><text x="296" y="198" text-anchor="middle" font-size="11" font-weight="600" fill="#ffffff" dominant-baseline="middle">Synthetic Data Generat…</text><path d="M461,147 A100,100 0 0 1 494,171" fill="none" stroke="#cbd5e1" stroke-width="2" marker-end="url(#ar)"/><path d="M519,249 A100,100 0 0 1 507,288" fill="none" stroke="#cbd5e1" stroke-width="2" marker-end="url(#ar)"/><path d="M441,336 A100,100 0 0 1 399,336" fill="none" stroke="#cbd5e1" stroke-width="2" marker-end="url(#ar)"/><path d="M333,288 A100,100 0 0 1 321,249" fill="none" stroke="#cbd5e1" stroke-width="2" marker-end="url(#ar)"/><path d="M346,171 A100,100 0 0 1 379,147" fill="none" stroke="#cbd5e1" stroke-width="2" marker-end="url(#ar)"/><text x="420" y="238" text-anchor="middle" font-size="12" font-weight="600" fill="#64748b" dominant-baseline="middle">continuous</text><text x="28" y="446" text-anchor="start" font-size="9.5" font-weight="500" fill="#64748b" dominant-baseline="middle">Generative AI  •  CI/CD Pipeline</text></svg>