<svg xmlns="http://www.w3.org/2000/svg" width="840" height="460" data-tpl="layered" data-pal="3-3" viewBox="0 0 840 460" font-family="Inter, Segoe UI, Arial, sans-serif"><defs><marker id="ar" markerWidth="9" markerHeight="9" refX="7" refY="3" orient="auto"><path d="M0,0 L7,3 L0,6 z" fill="#94a3b8"/></marker><marker id="arw" markerWidth="9" markerHeight="9" refX="7" refY="3" orient="auto"><path d="M0,0 L7,3 L0,6 z" fill="#ffffff"/></marker><filter id="sh" x="-20%" y="-20%" width="140%" height="140%"><feDropShadow dx="0" dy="2" stdDeviation="3" flood-color="#0f172a" flood-opacity="0.16"/></filter></defs><defs><linearGradient id="bnf3efcb7" x1="0" y1="0" x2="1" y2="0"><stop offset="0" stop-color="#ea580c"/><stop offset="1" stop-color="#f97316"/></linearGradient></defs><rect width="840" height="460" rx="14" fill="#ffffff"/><rect x="0" y="0" width="840" height="48" rx="14" fill="url(#bnf3efcb7)"/><rect x="0" y="32" width="840" height="16" fill="url(#bnf3efcb7)"/><text x="420" y="25" text-anchor="middle" font-size="14.5" font-weight="700" fill="#ffffff" dominant-baseline="middle">Cloud Architecture - Evaluation of Generative Systems</text><rect x="28" y="64" width="784" height="104" rx="14" fill="#f8fafc" stroke="#e2e8f0" stroke-width="1"/><text x="42" y="80" text-anchor="start" font-size="11" font-weight="700" fill="#64748b" dominant-baseline="middle">Experience</text><rect x="42" y="96" width="371" height="52" rx="11" fill="#ea580c" filter="url(#sh)"/><text x="228" y="122" text-anchor="middle" font-size="11" font-weight="600" fill="#ffffff" dominant-baseline="middle">Governance and Intellectual Property</text><rect x="427" y="96" width="371" height="52" rx="11" fill="#f97316" filter="url(#sh)"/><text x="612" y="122" text-anchor="middle" font-size="11" font-weight="600" fill="#ffffff" dominant-baseline="middle">The GenAI Reference Architecture</text><rect x="28" y="186" width="784" height="104" rx="14" fill="#f8fafc" stroke="#e2e8f0" stroke-width="1"/><text x="42" y="202" text-anchor="start" font-size="11" font-weight="700" fill="#64748b" dominant-baseline="middle">Platform</text><rect x="42" y="218" width="178" height="52" rx="11" fill="#f97316" filter="url(#sh)"/><text x="131" y="244" text-anchor="middle" font-size="11" font-weight="600" fill="#ffffff" dominant-baseline="middle">Multimodal Generation</text><rect x="234" y="218" width="178" height="52" rx="11" fill="#fb923c" filter="url(#sh)"/><text x="324" y="244" text-anchor="middle" font-size="9.5" font-weight="600" fill="#ffffff" dominant-baseline="middle">Grounding with Enterprise Data</text><rect x="427" y="218" width="178" height="52" rx="11" fill="#b45309" filter="url(#sh)"/><text x="516" y="239" text-anchor="middle" font-size="9.5" font-weight="600" fill="#ffffff" dominant-baseline="middle">Controllability and Structured</text><text x="516" y="249" text-anchor="middle" font-size="9.5" font-weight="600" fill="#ffffff" dominant-baseline="middle">Output</text><rect x="620" y="218" width="178" height="52" rx="11" fill="#d97706" filter="url(#sh)"/><text x="709" y="244" text-anchor="middle" font-size="9.5" font-weight="600" fill="#ffffff" dominant-baseline="middle">Evaluation of Generative Systems</text><rect x="28" y="308" width="784" height="104" rx="14" fill="#f8fafc" stroke="#e2e8f0" stroke-width="1"/><text x="42" y="324" text-anchor="start" font-size="11" font-weight="700" fill="#64748b" dominant-baseline="middle">Data &amp; Operations</text><rect x="42" y="340" width="178" height="52" rx="11" fill="#fb923c" filter="url(#sh)"/><text x="131" y="366" text-anchor="middle" font-size="11" font-weight="600" fill="#ffffff" dominant-baseline="middle">Store</text><rect x="234" y="340" width="178" height="52" rx="11" fill="#b45309" filter="url(#sh)"/><text x="324" y="366" text-anchor="middle" font-size="11" font-weight="600" fill="#ffffff" dominant-baseline="middle">Index</text><rect x="427" y="340" width="178" height="52" rx="11" fill="#d97706" filter="url(#sh)"/><text x="516" y="366" text-anchor="middle" font-size="11" font-weight="600" fill="#ffffff" dominant-baseline="middle">Observability</text><rect x="620" y="340" width="178" height="52" rx="11" fill="#f59e0b" filter="url(#sh)"/><text x="709" y="366" text-anchor="middle" font-size="11" font-weight="600" fill="#ffffff" dominant-baseline="middle">Security</text><text x="28" y="446" text-anchor="start" font-size="9.5" font-weight="500" fill="#64748b" dominant-baseline="middle">Generative AI  •  Cloud Architecture</text></svg>