<svg xmlns="http://www.w3.org/2000/svg" width="840" height="460" data-tpl="tree" data-pal="10-0" viewBox="0 0 840 460" font-family="Inter, Segoe UI, Arial, sans-serif"><defs><marker id="ar" markerWidth="9" markerHeight="9" refX="7" refY="3" orient="auto"><path d="M0,0 L7,3 L0,6 z" fill="#94a3b8"/></marker><marker id="arw" markerWidth="9" markerHeight="9" refX="7" refY="3" orient="auto"><path d="M0,0 L7,3 L0,6 z" fill="#ffffff"/></marker></defs><rect width="840" height="460" rx="14" fill="#ffffff"/><rect x="0" y="0" width="840" height="46" rx="14" fill="#14532d"/><rect x="0" y="30" width="840" height="16" fill="#14532d"/><text x="420" y="24" text-anchor="middle" font-size="15" font-weight="700" fill="#ffffff" dominant-baseline="middle">Data Lineage - Security and Multi-Tenancy</text><rect x="330" y="70" width="180" height="48" rx="11" fill="#0f172a"/><text x="420" y="94" text-anchor="middle" font-size="12" font-weight="600" fill="#ffffff" dominant-baseline="middle">Vector Databases</text><path d="M420,118 C420,170 108,160 108,210" fill="none" stroke="#cbd5e1" stroke-width="2"/><rect x="30" y="210" width="156" height="46" rx="11" fill="#14532d"/><text x="108" y="233" text-anchor="middle" font-size="11" font-weight="600" fill="#ffffff" dominant-baseline="middle">The Case for Purpose-Bui…</text><line x1="108" y1="256" x2="108" y2="296" stroke="#cbd5e1" stroke-width="1.6"/><rect x="38" y="296" width="140" height="40" rx="11" fill="#f8fafc"/><text x="108" y="316" text-anchor="middle" font-size="10" font-weight="600" fill="#0f172a" dominant-baseline="middle">Metadata Filter…</text><path d="M420,118 C420,170 316,160 316,210" fill="none" stroke="#cbd5e1" stroke-width="2"/><rect x="238" y="210" width="156" height="46" rx="11" fill="#166534"/><text x="316" y="233" text-anchor="middle" font-size="11" font-weight="600" fill="#ffffff" dominant-baseline="middle">ANN Indexing Algorithms</text><line x1="316" y1="256" x2="316" y2="296" stroke="#cbd5e1" stroke-width="1.6"/><rect x="246" y="296" width="140" height="40" rx="11" fill="#f8fafc"/><text x="316" y="316" text-anchor="middle" font-size="10" font-weight="600" fill="#0f172a" dominant-baseline="middle">ANN Indexing Al…</text><path d="M420,118 C420,170 524,160 524,210" fill="none" stroke="#cbd5e1" stroke-width="2"/><rect x="446" y="210" width="156" height="46" rx="11" fill="#15803d"/><text x="524" y="233" text-anchor="middle" font-size="11" font-weight="600" fill="#ffffff" dominant-baseline="middle">Distance Metrics and Qua…</text><line x1="524" y1="256" x2="524" y2="296" stroke="#cbd5e1" stroke-width="1.6"/><rect x="454" y="296" width="140" height="40" rx="11" fill="#f8fafc"/><text x="524" y="316" text-anchor="middle" font-size="10" font-weight="600" fill="#0f172a" dominant-baseline="middle">Sharding, Repli…</text><path d="M420,118 C420,170 732,160 732,210" fill="none" stroke="#cbd5e1" stroke-width="2"/><rect x="654" y="210" width="156" height="46" rx="11" fill="#16a34a"/><text x="732" y="233" text-anchor="middle" font-size="11" font-weight="600" fill="#ffffff" dominant-baseline="middle">Metadata Filtering and H…</text><line x1="732" y1="256" x2="732" y2="296" stroke="#cbd5e1" stroke-width="1.6"/><rect x="662" y="296" width="140" height="40" rx="11" fill="#f8fafc"/><text x="732" y="316" text-anchor="middle" font-size="10" font-weight="600" fill="#0f172a" dominant-baseline="middle">Benchmarking Ve…</text></svg>