<svg xmlns="http://www.w3.org/2000/svg" width="840" height="460" data-tpl="honeycomb" data-pal="3-0" viewBox="0 0 840 460" font-family="Inter, Segoe UI, Arial, sans-serif"><defs><marker id="ar" markerWidth="9" markerHeight="9" refX="7" refY="3" orient="auto"><path d="M0,0 L7,3 L0,6 z" fill="#94a3b8"/></marker><marker id="arw" markerWidth="9" markerHeight="9" refX="7" refY="3" orient="auto"><path d="M0,0 L7,3 L0,6 z" fill="#ffffff"/></marker><filter id="sh" x="-20%" y="-20%" width="140%" height="140%"><feDropShadow dx="0" dy="2" stdDeviation="3" flood-color="#0f172a" flood-opacity="0.16"/></filter></defs><defs><linearGradient id="bnc4982fa" x1="0" y1="0" x2="1" y2="0"><stop offset="0" stop-color="#b45309"/><stop offset="1" stop-color="#d97706"/></linearGradient></defs><rect width="840" height="460" rx="14" fill="#ffffff"/><rect x="0" y="0" width="840" height="48" rx="14" fill="url(#bnc4982fa)"/><rect x="0" y="32" width="840" height="16" fill="url(#bnc4982fa)"/><text x="420" y="25" text-anchor="middle" font-size="15" font-weight="700" fill="#ffffff" dominant-baseline="middle">Knowledge Graph - Case Study: Knowledge at Scale</text><polygon points="465,212 465,264 420,290 375,264 375,212 420,186" fill="#b45309"/><text x="420" y="238" text-anchor="middle" font-size="10" font-weight="600" fill="#fff" dominant-baseline="middle">Integration…</text><polygon points="375,212 375,264 330,290 284,264 284,212 330,186" fill="#d97706"/><text x="330" y="238" text-anchor="middle" font-size="10" font-weight="600" fill="#fff" dominant-baseline="middle">Reference A…</text><polygon points="556,212 556,264 510,290 465,264 465,212 510,186" fill="#f59e0b"/><text x="510" y="238" text-anchor="middle" font-size="10" font-weight="600" fill="#fff" dominant-baseline="middle">The Case fo…</text><polygon points="420,134 420,186 375,212 330,186 330,134 375,108" fill="#ea580c"/><text x="375" y="160" text-anchor="middle" font-size="10" font-weight="600" fill="#fff" dominant-baseline="middle">ANN Indexin…</text><polygon points="510,134 510,186 465,212 420,186 420,134 465,108" fill="#f97316"/><text x="465" y="160" text-anchor="middle" font-size="10" font-weight="600" fill="#fff" dominant-baseline="middle">Distance Me…</text><polygon points="420,290 420,342 375,368 330,342 330,290 375,264" fill="#fb923c"/><text x="375" y="316" text-anchor="middle" font-size="10" font-weight="600" fill="#fff" dominant-baseline="middle">Metadata Fi…</text><polygon points="510,290 510,342 465,368 420,342 420,290 465,264" fill="#b45309"/><text x="465" y="316" text-anchor="middle" font-size="10" font-weight="600" fill="#fff" dominant-baseline="middle">Sharding, R…</text><text x="28" y="446" text-anchor="start" font-size="9.5" font-weight="500" fill="#64748b" dominant-baseline="middle">Vector Databases  •  Knowledge Graph</text></svg>