<svg xmlns="http://www.w3.org/2000/svg" width="840" height="460" data-tpl="honeycomb" data-pal="10-1" viewBox="0 0 840 460" font-family="Inter, Segoe UI, Arial, sans-serif"><defs><marker id="ar" markerWidth="9" markerHeight="9" refX="7" refY="3" orient="auto"><path d="M0,0 L7,3 L0,6 z" fill="#94a3b8"/></marker><marker id="arw" markerWidth="9" markerHeight="9" refX="7" refY="3" orient="auto"><path d="M0,0 L7,3 L0,6 z" fill="#ffffff"/></marker><filter id="sh" x="-20%" y="-20%" width="140%" height="140%"><feDropShadow dx="0" dy="2" stdDeviation="3" flood-color="#0f172a" flood-opacity="0.16"/></filter></defs><defs><linearGradient id="bn48c907c" x1="0" y1="0" x2="1" y2="0"><stop offset="0" stop-color="#166534"/><stop offset="1" stop-color="#15803d"/></linearGradient></defs><rect width="840" height="460" rx="14" fill="#ffffff"/><rect x="0" y="0" width="840" height="48" rx="14" fill="url(#bn48c907c)"/><rect x="0" y="32" width="840" height="16" fill="url(#bn48c907c)"/><text x="420" y="25" text-anchor="middle" font-size="14.5" font-weight="700" fill="#ffffff" dominant-baseline="middle">Capability Map - Cost and Capacity Planning</text><polygon points="465,212 465,264 420,290 375,264 375,212 420,186" fill="#166534"/><text x="420" y="233" text-anchor="middle" font-size="9.5" font-weight="600" fill="#fff" dominant-baseline="middle">Metadata</text><text x="420" y="243" text-anchor="middle" font-size="9.5" font-weight="600" fill="#fff" dominant-baseline="middle">Filtering</text><polygon points="375,212 375,264 330,290 284,264 284,212 330,186" fill="#15803d"/><text x="330" y="233" text-anchor="middle" font-size="9.5" font-weight="600" fill="#fff" dominant-baseline="middle">Sharding,</text><text x="330" y="243" text-anchor="middle" font-size="9.5" font-weight="600" fill="#fff" dominant-baseline="middle">Replication</text><polygon points="556,212 556,264 510,290 465,264 465,212 510,186" fill="#16a34a"/><text x="510" y="233" text-anchor="middle" font-size="9.5" font-weight="600" fill="#fff" dominant-baseline="middle">Freshness,</text><text x="510" y="243" text-anchor="middle" font-size="9.5" font-weight="600" fill="#fff" dominant-baseline="middle">Upserts and</text><polygon points="420,134 420,186 375,212 330,186 330,134 375,108" fill="#22c55e"/><text x="375" y="155" text-anchor="middle" font-size="9.5" font-weight="600" fill="#fff" dominant-baseline="middle">Hybrid and</text><text x="375" y="165" text-anchor="middle" font-size="9.5" font-weight="600" fill="#fff" dominant-baseline="middle">Multi-Vector</text><polygon points="510,134 510,186 465,212 420,186 420,134 465,108" fill="#4ade80"/><text x="465" y="155" text-anchor="middle" font-size="9.5" font-weight="600" fill="#fff" dominant-baseline="middle">Benchmarking</text><text x="465" y="165" text-anchor="middle" font-size="9.5" font-weight="600" fill="#fff" dominant-baseline="middle">Vector</text><polygon points="420,290 420,342 375,368 330,342 330,290 375,264" fill="#14532d"/><text x="375" y="311" text-anchor="middle" font-size="9.5" font-weight="600" fill="#fff" dominant-baseline="middle">Security</text><text x="375" y="321" text-anchor="middle" font-size="9.5" font-weight="600" fill="#fff" dominant-baseline="middle">and</text><polygon points="510,290 510,342 465,368 420,342 420,290 465,264" fill="#166534"/><text x="465" y="311" text-anchor="middle" font-size="9.5" font-weight="600" fill="#fff" dominant-baseline="middle">Cost and</text><text x="465" y="321" text-anchor="middle" font-size="9.5" font-weight="600" fill="#fff" dominant-baseline="middle">Capacity</text><text x="28" y="446" text-anchor="start" font-size="9.5" font-weight="500" fill="#64748b" dominant-baseline="middle">Vector Databases  •  Capability Map</text></svg>