<svg xmlns="http://www.w3.org/2000/svg" width="840" height="460" data-tpl="matrix" data-pal="10-3" viewBox="0 0 840 460" font-family="Inter, Segoe UI, Arial, sans-serif"><defs><marker id="ar" markerWidth="9" markerHeight="9" refX="7" refY="3" orient="auto"><path d="M0,0 L7,3 L0,6 z" fill="#94a3b8"/></marker><marker id="arw" markerWidth="9" markerHeight="9" refX="7" refY="3" orient="auto"><path d="M0,0 L7,3 L0,6 z" fill="#ffffff"/></marker><filter id="sh" x="-20%" y="-20%" width="140%" height="140%"><feDropShadow dx="0" dy="2" stdDeviation="3" flood-color="#0f172a" flood-opacity="0.16"/></filter></defs><defs><linearGradient id="bn8bcf77e" x1="0" y1="0" x2="1" y2="0"><stop offset="0" stop-color="#16a34a"/><stop offset="1" stop-color="#22c55e"/></linearGradient></defs><rect width="840" height="460" rx="14" fill="#ffffff"/><rect x="0" y="0" width="840" height="48" rx="14" fill="url(#bn8bcf77e)"/><rect x="0" y="32" width="840" height="16" fill="url(#bn8bcf77e)"/><text x="420" y="25" text-anchor="middle" font-size="15" font-weight="700" fill="#ffffff" dominant-baseline="middle">Security Architecture - Capstone Project</text><rect x="273" y="97" width="144" height="144" rx="12" fill="#16a34a"/><text x="345" y="169" text-anchor="middle" font-size="12" font-weight="600" fill="#fff" dominant-baseline="middle">Graphs for Grou…</text><rect x="423" y="97" width="144" height="144" rx="12" fill="#22c55e"/><text x="495" y="169" text-anchor="middle" font-size="12" font-weight="600" fill="#fff" dominant-baseline="middle">Governance and …</text><rect x="273" y="247" width="144" height="144" rx="12" fill="#4ade80"/><text x="345" y="319" text-anchor="middle" font-size="12" font-weight="600" fill="#fff" dominant-baseline="middle">Operating Knowl…</text><rect x="423" y="247" width="144" height="144" rx="12" fill="#14532d"/><text x="495" y="319" text-anchor="middle" font-size="12" font-weight="600" fill="#fff" dominant-baseline="middle">Visualising Kno…</text><text x="420" y="82" text-anchor="middle" font-size="10" font-weight="600" fill="#64748b" dominant-baseline="middle">High impact</text><text x="420" y="410" text-anchor="middle" font-size="10" font-weight="600" fill="#64748b" dominant-baseline="middle">Low impact</text><text x="258.0" y="244.0" text-anchor="middle" font-size="10" fill="#64748b" transform="rotate(-90 258.0 244.0)">Low effort</text><text x="582.0" y="244.0" text-anchor="middle" font-size="10" fill="#64748b" transform="rotate(90 582.0 244.0)">High effort</text><text x="28" y="446" text-anchor="start" font-size="9.5" font-weight="500" fill="#64748b" dominant-baseline="middle">Knowledge Graphs  •  Security Architecture</text></svg>